<?xml version="1.0" encoding="iso-8859-1"?>
<!-- Generator: Adobe Illustrator 19.0.0, SVG Export Plug-In . SVG Version: 6.00 Build 0)  -->
<svg version="1.1" id="Layer_1" xmlns="http://www.w3.org/2000/svg" xmlns:xlink="http://www.w3.org/1999/xlink" x="0px" y="0px"
	 viewBox="0 0 512 512" style="enable-background:new 0 0 512 512;" xml:space="preserve">
<g>
	<g>
		<path d="M389.306,133.306C389.306,59.801,329.506,0,256,0c-4.072,0-8.158,0.186-12.147,0.551
			c-32.996,2.981-63.556,18.108-86.052,42.599c-22.638,24.645-35.106,56.664-35.106,90.155c0,62.3,42.96,114.748,100.811,129.293
			v20.15c-13.538,2.341-32.536,6.884-40.396,14.742c-12.815,12.815-12.815,33.665,0,46.48c6.209,6.208,14.464,9.626,23.247,9.626
			c6.149,0,12.037-1.682,17.149-4.818v130.726C223.506,497.423,238.083,512,256,512s32.494-14.577,32.494-32.494V348.779
			c5.111,3.136,10.999,4.818,17.149,4.818c8.782,0,17.038-3.419,23.247-9.626c12.815-12.815,12.815-33.665,0-46.48
			c-7.859-7.859-26.857-12.403-40.396-14.742v-20.15C346.345,248.053,389.306,195.605,389.306,133.306z M213.756,328.125
			c-1.975,1.975-4.602,3.062-7.4,3.062c-2.798,0-5.425-1.088-7.4-3.063c-4.078-4.076-4.078-10.711-0.021-14.768
			c2.282-2.098,11.356-4.971,22.047-7.246C218.708,316.795,215.839,325.857,213.756,328.125z M313.043,313.338
			c4.078,4.076,4.078,10.711,0,14.787c-1.975,1.975-4.603,3.063-7.4,3.063s-5.424-1.088-7.38-3.043
			c-2.098-2.282-4.971-11.354-7.247-22.04C301.698,308.377,310.768,311.246,313.043,313.338z M266.084,479.506
			c0,5.561-4.523,10.084-10.084,10.084c-5.561,0-10.084-4.525-10.084-10.084V303.588h20.169V479.506z M266.084,281.178h-20.169
			v-14.566h20.169V281.178z M256,244.201c-61.149,0-110.896-49.748-110.896-110.896c0-57.775,43.324-105.253,100.775-110.437
			c0.006,0,0.011-0.001,0.017-0.001c3.311-0.304,6.711-0.457,10.104-0.457c61.148,0,110.896,49.748,110.896,110.896
			S317.149,244.201,256,244.201z"/>
	</g>
</g>
<g>
	<g>
		<path d="M327.437,166.472c-4.131-4.609-11.217-4.993-15.823-0.864c-12.87,11.539-29.489,17.894-46.795,17.894
			c-29.7,0-53.862-24.162-53.862-53.862c0-22.526,18.326-40.853,40.853-40.853c16.786,0,30.444,13.657,30.444,30.444
			c0,12.19-9.922,22.107-22.117,22.107c-6.187,0-11.205,5.016-11.205,11.205c0,6.189,5.018,11.205,11.205,11.205
			c24.552,0,44.527-19.971,44.527-44.517c0-29.144-23.71-52.854-52.854-52.854c-34.883,0-63.263,28.38-63.263,63.263
			c0,42.057,34.216,76.272,76.272,76.272c22.835,0.001,44.766-8.387,61.755-23.618C331.181,178.164,331.569,171.08,327.437,166.472z
			"/>
	</g>
</g>
<g>
	<g>
		<path d="M346.431,122.44c-5.999-1.514-12.091,2.129-13.602,8.13c-0.509,2.021-1.116,4.042-1.804,6.006
			c-2.048,5.84,1.025,12.234,6.865,14.282c1.227,0.43,2.477,0.634,3.708,0.634c4.627,0,8.956-2.888,10.574-7.501
			c0.911-2.6,1.716-5.275,2.389-7.95C356.073,130.04,352.432,123.951,346.431,122.44z"/>
	</g>
</g>
</svg>
